<?xml version="1.0" encoding="utf-8"?>
<!-- Generator: Adobe Illustrator 15.1.0, SVG Export Plug-In . SVG Version: 6.00 Build 0)  -->
<!DOCTYPE svg PUBLIC "-//W3C//DTD SVG 1.1//EN" "http://www.w3.org/Graphics/SVG/1.1/DTD/svg11.dtd">
<svg version="1.1" id="Layer_1" xmlns="http://www.w3.org/2000/svg" xmlns:xlink="http://www.w3.org/1999/xlink" x="0px" y="0px"
	 width="336.457px" height="241.939px" viewBox="0 0 336.457 241.939" enable-background="new 0 0 336.457 241.939"
	 xml:space="preserve">
<g>
	<defs>
		<rect id="SVGID_1_" width="336.457" height="241.939"/>
	</defs>
	<clipPath id="SVGID_2_">
		<use xlink:href="#SVGID_1_"  overflow="visible"/>
	</clipPath>
	<g clip-path="url(#SVGID_2_)">
		<path fill="#FFFFFF" d="M5.453,19.761h26.779c5.65,0,10.231,1.611,13.741,4.832c3.509,3.222,5.264,7.478,5.264,12.769
			c0,3.996-1.053,7.433-3.159,10.312c-2.105,2.88-5.283,5.202-9.529,6.965c5.939,0.864,10.384,2.861,13.336,5.993
			c2.951,3.132,4.427,7.397,4.427,12.796c0,6.623-2.403,11.887-7.208,15.792c-4.805,3.906-11.293,5.858-19.463,5.858H5.453V19.761z
			 M23,34.392V48.7h1.944c2.627,0,4.706-0.684,6.236-2.052c1.529-1.368,2.294-3.257,2.294-5.669c0-2.195-0.594-3.842-1.782-4.94
			c-1.188-1.097-2.988-1.646-5.399-1.646H23z M23,62.683v17.601h5.669c2.808,0,5.138-0.818,6.992-2.457
			c1.854-1.638,2.781-3.752,2.781-6.344c0-2.664-0.937-4.796-2.808-6.398c-1.872-1.601-4.193-2.403-6.965-2.403H23z"/>
		<path fill="#FFFFFF" d="M79.419,50.427c1.044-2.663,2.322-4.661,3.833-5.993c1.512-1.332,3.275-1.998,5.291-1.998
			c1.296,0,2.681,0.396,4.157,1.188v16.197c-1.764-0.864-3.366-1.296-4.805-1.296c-2.196,0-4.014,0.891-5.453,2.672
			c-1.44,1.782-2.16,4.059-2.16,6.83v27.049H62.898V43.625h14.793L79.419,50.427z"/>
		<path fill="#FFFFFF" d="M107.819,18.519c2.339,0,4.463,0.846,6.371,2.538c1.907,1.692,2.861,3.888,2.861,6.587
			c0,2.556-0.909,4.716-2.727,6.479c-1.818,1.764-3.987,2.646-6.506,2.646c-2.591,0-4.778-0.909-6.56-2.727
			c-1.782-1.817-2.673-3.968-2.673-6.452c0-2.519,0.918-4.661,2.753-6.425C103.176,19.401,105.335,18.519,107.819,18.519z
			 M99.126,43.625h17.169v51.453H99.126V43.625z"/>
		<path fill="#FFFFFF" d="M158.031,93.08c-3.708,2.123-7.343,3.186-10.906,3.186c-6.263,0-11.545-2.583-15.846-7.748
			c-4.302-5.165-6.452-11.527-6.452-19.085c0-7.522,2.205-13.903,6.614-19.14c4.409-5.237,9.925-7.856,16.548-7.856
			c2.916,0,6.263,0.721,10.042,2.16v15.496c-2.348-1.691-4.442-2.538-6.285-2.538c-2.637,0-4.858,1.08-6.664,3.239
			c-1.806,2.16-2.709,4.896-2.709,8.207c0,3.312,0.912,6.093,2.736,8.342c1.824,2.25,3.963,3.375,6.42,3.375
			c2.131,0,4.298-0.954,6.502-2.862V93.08z"/>
		<path fill="#FFFFFF" d="M167.965,19.761h17.061v39.521l8.207-15.657h15.98l-9.865,14.403l11.998,37.05h-18.09l-5.885-19.622
			l-2.346,3.425v16.197h-17.061V19.761z"/>
	</g>
	<g clip-path="url(#SVGID_2_)">
		<path fill="#FFFFFF" d="M97.109,116.416h41.951v15.171h-24.404v15.657h22.568v14.686h-22.568v29.803H97.109V116.416z"/>
		<path fill="#FFFFFF" d="M149.102,143.25c5.867-2.771,11.428-4.157,16.683-4.157c3.888,0,7.279,0.684,10.178,2.052
			c2.896,1.368,5.336,3.581,7.315,6.641s2.97,6.965,2.97,11.716v17.277c0,5.003,1.025,9.988,3.077,14.955h-17.169
			c-0.648-1.433-1.17-3.062-1.566-4.89c-1.691,2.008-3.464,3.523-5.317,4.545c-1.854,1.021-3.807,1.532-5.858,1.532
			c-3.996,0-7.568-1.593-10.717-4.778c-3.15-3.185-4.724-7.063-4.724-11.635c0-10.294,8.872-16.575,26.617-18.843
			c-0.396-1.871-1.367-3.274-2.915-4.211c-1.548-0.936-3.671-1.404-6.371-1.404c-3.96,0-8.027,1.62-12.202,4.859V143.25z
			 M170.59,166.195c-7.199,0.651-10.797,3.343-10.797,8.075c0,1.771,0.54,3.271,1.62,4.498c1.08,1.229,2.357,1.843,3.833,1.843
			c1.728,0,3.05-0.74,3.968-2.222c0.917-1.481,1.376-3.342,1.376-5.583V166.195z"/>
		<path fill="#FFFFFF" d="M226.633,189.735c-3.707,2.124-7.342,3.186-10.906,3.186c-6.263,0-11.545-2.582-15.846-7.747
			c-4.302-5.165-6.452-11.527-6.452-19.086c0-7.522,2.204-13.902,6.614-19.14c4.408-5.237,9.925-7.855,16.549-7.855
			c2.914,0,6.262,0.72,10.041,2.159v15.495c-2.348-1.691-4.441-2.537-6.285-2.537c-2.637,0-4.857,1.08-6.662,3.239
			c-1.807,2.16-2.71,4.896-2.71,8.207s0.912,6.092,2.735,8.341c1.824,2.25,3.965,3.375,6.42,3.375c2.131,0,4.299-0.953,6.502-2.861
			V189.735z"/>
		<path fill="#FFFFFF" d="M240.94,124.785h14.253v15.495h8.531v12.58h-7.775v21.056c0,3.24,1.296,4.859,3.888,4.859
			c1.26,0,2.556-0.485,3.888-1.457v13.929c-3.168,1.115-6.39,1.674-9.665,1.674c-5.327,0-9.241-1.269-11.742-3.806
			c-2.503-2.538-3.753-6.47-3.753-11.797V152.86h-6.316v-12.58h7.288L240.94,124.785z"/>
		<path fill="#FFFFFF" d="M270.149,172.782c5.508,4.536,10.276,6.804,14.308,6.804c1.548,0,2.88-0.405,3.995-1.215
			c1.115-0.811,1.674-1.881,1.674-3.213c0-1.007-0.44-1.862-1.322-2.564c-0.883-0.702-2.529-1.521-4.94-2.457
			c-5.759-2.23-9.484-4.66-11.176-7.288c-1.692-2.627-2.538-5.237-2.538-7.829c0-4.786,1.971-8.639,5.912-11.554
			c3.941-2.916,8.737-4.373,14.389-4.373c4.895,0,9.736,1.116,14.523,3.347v15.28c-3.995-3.456-7.828-5.184-11.5-5.184
			c-1.656,0-2.897,0.27-3.726,0.81s-1.241,1.368-1.241,2.483c0,1.512,1.781,2.845,5.345,3.996
			c9.683,3.204,14.523,8.333,14.523,15.387c0,4.968-1.989,9.161-5.966,12.58c-3.978,3.42-9.098,5.129-15.36,5.129
			c-5.256,0-10.889-1.493-16.899-4.48V172.782z"/>
	</g>
</g>
</svg>
