<?xml version="1.0" encoding="utf-8"?>
<!-- Generator: Adobe Illustrator 15.1.0, SVG Export Plug-In . SVG Version: 6.00 Build 0)  -->
<!DOCTYPE svg PUBLIC "-//W3C//DTD SVG 1.1//EN" "http://www.w3.org/Graphics/SVG/1.1/DTD/svg11.dtd">
<svg version="1.1" id="Layer_2" xmlns="http://www.w3.org/2000/svg" xmlns:xlink="http://www.w3.org/1999/xlink" x="0px" y="0px"
	 width="1297.436px" height="419.979px" viewBox="0 0 1297.436 419.979" enable-background="new 0 0 1297.436 419.979"
	 xml:space="preserve">
<g>
	<defs>
		<rect id="SVGID_1_" width="1297.436" height="419.979"/>
	</defs>
	<clipPath id="SVGID_2_">
		<use xlink:href="#SVGID_1_"  overflow="visible"/>
	</clipPath>
	<g clip-path="url(#SVGID_2_)">
		<defs>
			<rect id="SVGID_3_" x="-14.123" y="93.673" width="1332.52" height="337.723"/>
		</defs>
		<clipPath id="SVGID_4_">
			<use xlink:href="#SVGID_3_"  overflow="visible"/>
		</clipPath>
		<g clip-path="url(#SVGID_4_)">
			<defs>
				<rect id="SVGID_5_" x="-14.123" y="93.673" width="1332.521" height="337.723"/>
			</defs>
			<clipPath id="SVGID_6_">
				<use xlink:href="#SVGID_5_"  overflow="visible"/>
			</clipPath>
			<path clip-path="url(#SVGID_6_)" fill="#191919" d="M564.287,207.615l0.722-46.717c6.059-3.759,12.058-3.666,16.998,0.263
				l-0.722,46.717L564.287,207.615z"/>
			<path clip-path="url(#SVGID_6_)" fill="none" stroke="#1C1C1C" stroke-miterlimit="10" d="M564.287,207.615l0.722-46.717
				c6.059-3.759,12.058-3.666,16.998,0.263l-0.722,46.717L564.287,207.615z"/>
			<path clip-path="url(#SVGID_6_)" fill="#191919" d="M995.004,172.266l-2.459-74.638c4.458-4.887,10.055-4.424,16.61,0.354
				l3.903,74.563L995.004,172.266z"/>
			<path clip-path="url(#SVGID_6_)" fill="none" stroke="#1C1C1C" stroke-miterlimit="10" d="M995.004,172.266l-2.459-74.638
				c4.458-4.887,10.055-4.424,16.61,0.354l3.903,74.563L995.004,172.266z"/>
			<polygon clip-path="url(#SVGID_6_)" fill="#191919" points="1087.668,166.186 1085.485,113.657 1094.874,113.802 
				1099.115,165.584 			"/>
			<polygon clip-path="url(#SVGID_6_)" fill="none" stroke="#1C1C1C" stroke-miterlimit="10" points="1087.668,166.186 
				1085.485,113.657 1094.874,113.802 1099.115,165.584 			"/>
			<polygon clip-path="url(#SVGID_6_)" fill="#191919" points="834.019,291.792 834.415,266.195 903.299,263.648 911.237,278.219 
				911.01,292.982 			"/>
			<polygon clip-path="url(#SVGID_6_)" fill="none" stroke="#1C1C1C" stroke-miterlimit="10" points="834.019,291.792 
				834.415,266.195 903.299,263.648 911.237,278.219 911.01,292.982 			"/>
			<polygon clip-path="url(#SVGID_6_)" fill="#A86C4B" points="-7.738,237.191 60.218,231.79 164.726,273.185 163.968,322.295 
				376.154,311.849 377.717,210.739 578.796,198.676 635.206,245.78 634.336,302.112 975.023,284.982 971.787,172.962 
				1211.164,158.603 1218.06,228.039 1248.976,144.739 1309.025,139.166 1318.397,428.854 -14.123,431.396 			"/>
			<g opacity="0.17" clip-path="url(#SVGID_6_)">
				<g>
					<defs>
						<rect id="SVGID_7_" x="579.381" y="198.716" width="56.825" height="103.413"/>
					</defs>
					<clipPath id="SVGID_8_">
						<use xlink:href="#SVGID_7_"  overflow="visible"/>
					</clipPath>
					<polygon clip-path="url(#SVGID_8_)" points="579.905,198.716 636.206,245.795 635.335,302.128 579.381,301.459 					"/>
				</g>
			</g>
			<g opacity="0.17" clip-path="url(#SVGID_6_)">
				<g>
					<defs>
						<rect id="SVGID_9_" x="57.869" y="231.775" width="108.005" height="96.104"/>
					</defs>
					<clipPath id="SVGID_10_">
						<use xlink:href="#SVGID_9_"  overflow="visible"/>
					</clipPath>
					<polygon clip-path="url(#SVGID_10_)" points="59.354,231.776 165.875,274.646 162.764,322.277 57.869,327.88 					"/>
				</g>
			</g>
		</g>
	</g>
</g>
</svg>
